<?xml version="1.0" encoding="UTF-8"?>
<!DOCTYPE svg PUBLIC "-//W3C//DTD SVG 1.1//EN" "http://www.w3.org/Graphics/SVG/1.1/DTD/svg11.dtd">
<svg xmlns="http://www.w3.org/2000/svg" version="1.1" width="500px" height="172px" style="shape-rendering:geometricPrecision; text-rendering:geometricPrecision; image-rendering:optimizeQuality; fill-rule:evenodd; clip-rule:evenodd" xmlns:xlink="http://www.w3.org/1999/xlink">
<g><path style="opacity:1" fill="#000000" d="M 412.5,44.5 C 416.833,44.5 421.167,44.5 425.5,44.5C 425.5,67.8333 425.5,91.1667 425.5,114.5C 421.167,114.5 416.833,114.5 412.5,114.5C 412.5,91.1667 412.5,67.8333 412.5,44.5 Z"/></g>
<g><path style="opacity:1" fill="#050505" d="M 48.5,45.5 C 65.359,43.9125 75.0257,51.4125 77.5,68C 77.3582,72.76 76.1915,77.26 74,81.5C 67.9127,92.0065 62.0793,102.673 56.5,113.5C 50.8625,114.663 45.1959,114.83 39.5,114C 44.4362,106.959 48.4362,99.4589 51.5,91.5C 37.9626,89.9574 30.9626,82.2908 30.5,68.5C 31.317,56.6922 37.317,49.0256 48.5,45.5 Z"/></g>
<g><path style="opacity:1" fill="#050505" d="M 101.5,45.5 C 115.464,43.396 125.297,48.7293 131,61.5C 131.839,66.9212 131.506,72.2545 130,77.5C 123.902,89.9178 117.402,102.084 110.5,114C 105.167,114.667 99.8333,114.667 94.5,114C 98.6268,106.914 102.627,99.7474 106.5,92.5C 90.7504,89.2447 83.5837,79.578 85,63.5C 87.5923,54.7446 93.0923,48.7446 101.5,45.5 Z"/></g>
<g><path style="opacity:1" fill="#3d9ef1" d="M 174.5,45.5 C 185.549,45.1499 196.549,45.6499 207.5,47C 220.073,50.2902 226.907,58.4569 228,71.5C 228.726,81.8658 228.392,92.1991 227,102.5C 223.934,114.234 216.434,121.067 204.5,123C 195.87,124.368 187.203,124.702 178.5,124C 162.366,123.374 152.866,115.207 150,99.5C 149.091,88.108 149.424,76.7747 151,65.5C 154.831,54.0176 162.664,47.3509 174.5,45.5 Z"/></g>
<g><path style="opacity:1" fill="#070707" d="M 392.5,45.5 C 402.563,46.0538 404.897,50.5538 399.5,59C 391.173,61.0026 387.673,57.836 389,49.5C 389.69,47.6498 390.856,46.3164 392.5,45.5 Z"/></g>
<g><path style="opacity:1" fill="#020202" d="M 306.5,46.5 C 310.833,46.5 315.167,46.5 319.5,46.5C 319.5,69.1667 319.5,91.8333 319.5,114.5C 315.167,114.5 310.833,114.5 306.5,114.5C 306.833,99.4852 306.499,84.4852 305.5,69.5C 304.893,69.6236 304.56,69.9569 304.5,70.5C 299.887,77.6197 295.054,84.6197 290,91.5C 285.921,92.6295 281.755,92.7961 277.5,92C 272.613,85.0484 267.613,78.2151 262.5,71.5C 262.44,70.9569 262.107,70.6236 261.5,70.5C 260.501,85.1515 260.167,99.8182 260.5,114.5C 255.833,114.5 251.167,114.5 246.5,114.5C 246.5,91.8333 246.5,69.1667 246.5,46.5C 251.544,46.1725 256.544,46.5059 261.5,47.5C 268.833,57.5 276.167,67.5 283.5,77.5C 290.944,66.9206 298.61,56.5872 306.5,46.5 Z"/></g>
<g><path style="opacity:1" fill="#5b5b5b" d="M 306.5,46.5 C 310.97,45.5139 315.637,45.1805 320.5,45.5C 320.831,68.6727 320.498,91.6727 319.5,114.5C 319.5,91.8333 319.5,69.1667 319.5,46.5C 315.167,46.5 310.833,46.5 306.5,46.5 Z"/></g>
<g><path style="opacity:1" fill="#f6fafe" d="M 182.5,55.5 C 194.044,53.4209 204.211,56.0875 213,63.5C 218.621,71.8119 219.954,80.8119 217,90.5C 211.906,100.569 205.239,101.902 197,94.5C 189.592,101.47 182.592,101.137 176,93.5C 172.326,84.1726 174.493,76.6726 182.5,71C 187.913,68.541 192.747,69.3744 197,73.5C 197.271,69.8695 198.938,68.8695 202,70.5C 202.167,71.5 202.333,72.5 202.5,73.5C 201.46,79.81 201.293,86.1434 202,92.5C 207.928,95.365 211.594,93.365 213,86.5C 215.39,69.6243 208.057,60.6243 191,59.5C 180.629,60.6863 172.629,65.6863 167,74.5C 160.385,91.0202 165.218,102.52 181.5,109C 187.887,109.185 194.221,108.852 200.5,108C 201.833,109 201.833,110 200.5,111C 187.126,117.179 175.292,115.012 165,104.5C 154.262,82.213 160.095,65.8797 182.5,55.5 Z"/></g>
<g><path style="opacity:1" fill="#f7f7f7" d="M 50.5,58.5 C 62.4302,58.6794 66.0969,64.3461 61.5,75.5C 56.7018,79.466 51.8685,79.466 47,75.5C 43.0149,68.7381 44.1816,63.0714 50.5,58.5 Z"/></g>
<g><path style="opacity:1" fill="#f8f8f8" d="M 105.5,58.5 C 111.695,57.3447 115.861,59.6781 118,65.5C 118.935,75.5656 114.435,79.7323 104.5,78C 97.6058,71.0239 97.9391,64.5239 105.5,58.5 Z"/></g>
<g><path style="opacity:1" fill="#080808" d="M 345.5,65.5 C 353.461,64.0461 360.294,66.0461 366,71.5C 366.402,70.1279 366.902,68.7946 367.5,67.5C 371.445,66.5091 375.445,66.1758 379.5,66.5C 379.5,82.5 379.5,98.5 379.5,114.5C 375.445,114.824 371.445,114.491 367.5,113.5C 366.902,112.205 366.402,110.872 366,109.5C 360.289,115.117 353.455,116.95 345.5,115C 331.113,108.911 325.613,98.0778 329,82.5C 332.019,74.3156 337.519,68.649 345.5,65.5 Z"/></g>
<g><path style="opacity:1" fill="#070707" d="M 445.5,65.5 C 451.233,64.8951 456.566,66.0617 461.5,69C 468.877,75.4826 467.544,79.3159 457.5,80.5C 455.691,78.5115 453.524,77.1782 451,76.5C 446.746,77.2314 445.58,79.5648 447.5,83.5C 452.932,85.0252 458.265,86.8586 463.5,89C 471.521,96.9066 471.188,104.573 462.5,112C 450.457,118.362 440.457,116.195 432.5,105.5C 435.737,103.965 438.903,102.298 442,100.5C 447.184,105.985 452.017,105.819 456.5,100C 454.874,98.1814 452.874,96.8481 450.5,96C 437.528,95.0389 432.028,88.2056 434,75.5C 436.794,70.8659 440.627,67.5326 445.5,65.5 Z"/></g>
<g><path style="opacity:1" fill="#4f4f4f" d="M 401.5,114.5 C 401.5,98.8333 401.5,83.1667 401.5,67.5C 397.5,67.5 393.5,67.5 389.5,67.5C 389.5,83.1667 389.5,98.8333 389.5,114.5C 388.504,98.6754 388.17,82.6754 388.5,66.5C 393.167,66.5 397.833,66.5 402.5,66.5C 402.83,82.6754 402.496,98.6754 401.5,114.5 Z"/></g>
<g><path style="opacity:1" fill="#000000" d="M 401.5,114.5 C 397.5,114.5 393.5,114.5 389.5,114.5C 389.5,98.8333 389.5,83.1667 389.5,67.5C 393.5,67.5 397.5,67.5 401.5,67.5C 401.5,83.1667 401.5,98.8333 401.5,114.5 Z"/></g>
<g><path style="opacity:1" fill="#2d2d2d" d="M 304.5,70.5 C 304.56,69.9569 304.893,69.6236 305.5,69.5C 306.499,84.4852 306.833,99.4852 306.5,114.5C 305.833,99.8333 305.167,85.1667 304.5,70.5 Z"/></g>
<g><path style="opacity:1" fill="#545454" d="M 262.5,71.5 C 261.833,85.8333 261.167,100.167 260.5,114.5C 260.167,99.8182 260.501,85.1515 261.5,70.5C 262.107,70.6236 262.44,70.9569 262.5,71.5 Z"/></g>
<g><path style="opacity:1" fill="#3f9ff1" d="M 185.5,74.5 C 195.927,75.6844 198.76,81.0177 194,90.5C 190.21,94.8541 185.877,95.5207 181,92.5C 176.899,85.0514 178.399,79.0514 185.5,74.5 Z"/></g>
<g><path style="opacity:1" fill="#f9f9f9" d="M 348.5,77.5 C 361.818,76.3186 367.318,82.3186 365,95.5C 361.783,102.588 356.283,105.088 348.5,103C 337.874,94.4667 337.874,85.9667 348.5,77.5 Z"/></g>
</svg>
