<svg xmlns="http://www.w3.org/2000/svg" xmlns:xlink="http://www.w3.org/1999/xlink" version="1.1" style="shape-rendering:geometricPrecision; text-rendering:geometricPrecision; image-rendering:optimizeQuality; fill-rule:evenodd; clip-rule:evenodd" viewBox="32.5 206.44 434.86 86.06">
<g><path style="opacity:1" fill="#3b9ef1" d="M 57.5,206.5 C 69.1714,206.333 80.8381,206.5 92.5,207C 105.889,209.09 114.389,216.59 118,229.5C 118.667,242.167 118.667,254.833 118,267.5C 114.711,282.784 105.211,290.95 89.5,292C 79.8333,292.667 70.1667,292.667 60.5,292C 43.9939,290.161 34.8272,280.994 33,264.5C 32.0852,252.442 32.4186,240.442 34,228.5C 37.5397,216.496 45.373,209.162 57.5,206.5 Z"/></g>
<g><path style="opacity:1" fill="#000000" d="M 393.5,210.5 C 397.5,210.5 401.5,210.5 405.5,210.5C 405.5,232.5 405.5,254.5 405.5,276.5C 401.5,276.5 397.5,276.5 393.5,276.5C 393.5,254.5 393.5,232.5 393.5,210.5 Z"/></g>
<g><path style="opacity:1" fill="#070707" d="M 149.5,211.5 C 172.532,211.359 181.032,222.359 175,244.5C 169.5,254.833 164,265.167 158.5,275.5C 153.198,276.663 147.864,276.829 142.5,276C 146.293,269.581 149.96,263.081 153.5,256.5C 141.113,253.781 134.446,246.115 133.5,233.5C 134.627,223.049 139.96,215.715 149.5,211.5 Z"/></g>
<g><path style="opacity:1" fill="#070707" d="M 200.5,211.5 C 216.907,209.756 226.574,216.923 229.5,233C 229.406,236.357 228.573,239.523 227,242.5C 221.167,253.5 215.333,264.5 209.5,275.5C 204.198,276.663 198.864,276.829 193.5,276C 197.367,269.628 201.034,263.128 204.5,256.5C 186.084,250.145 180.917,238.145 189,220.5C 192.161,216.491 195.994,213.491 200.5,211.5 Z"/></g>
<g><path style="opacity:1" fill="#010101" d="M 293.5,276.5 C 293.833,262.484 293.499,248.484 292.5,234.5C 291.893,234.624 291.56,234.957 291.5,235.5C 286.965,242.059 282.299,248.559 277.5,255C 273.833,255.667 270.167,255.667 266.5,255C 261.617,248.957 256.95,242.79 252.5,236.5C 252.217,235.711 251.717,235.044 251,234.5C 250.5,248.496 250.333,262.496 250.5,276.5C 246.167,276.5 241.833,276.5 237.5,276.5C 237.5,255.167 237.5,233.833 237.5,212.5C 241.846,212.334 246.179,212.501 250.5,213C 257.788,222.41 264.955,231.91 272,241.5C 279.045,231.91 286.212,222.41 293.5,213C 297.821,212.501 302.154,212.334 306.5,212.5C 306.5,233.833 306.5,255.167 306.5,276.5C 302.167,276.5 297.833,276.5 293.5,276.5 Z"/></g>
<g><path style="opacity:1" fill="#0e0e0e" d="M 374.5,211.5 C 382.379,211.216 385.212,214.883 383,222.5C 378.568,226.743 374.568,226.41 371,221.5C 369.756,217.191 370.923,213.858 374.5,211.5 Z"/></g>
<g><path style="opacity:1" fill="#f6fafe" d="M 71.5,216.5 C 100.891,215.327 112.391,228.994 106,257.5C 100.034,266.734 93.034,267.734 85,260.5C 76.8983,267.482 69.2316,267.149 62,259.5C 56.5043,245.684 60.8376,236.684 75,232.5C 78.6569,232.994 81.9902,234.327 85,236.5C 85.271,232.87 86.9377,231.87 90,233.5C 90.1667,234.667 90.3333,235.833 90.5,237C 89.4718,243.813 89.3051,250.646 90,257.5C 91.9904,260.722 94.4904,261.222 97.5,259C 103.489,252.494 104.989,244.994 102,236.5C 99.3046,229.137 94.138,224.637 86.5,223C 71.7361,219.963 60.2361,224.796 52,237.5C 44.2806,255.697 49.4472,268.53 67.5,276C 71.1667,276.667 74.8333,276.667 78.5,276C 81.5449,275.086 84.5449,274.419 87.5,274C 89.0074,274.837 89.5074,276.004 89,277.5C 71.1919,285.897 56.8586,281.897 46,265.5C 39.4561,241.237 47.9561,224.904 71.5,216.5 Z"/></g>
<g><path style="opacity:1" fill="#f8f8f8" d="M 153.5,223.5 C 162.508,224.01 166.008,228.677 164,237.5C 163.215,239.286 162.049,240.786 160.5,242C 150.387,243.888 146.221,239.721 148,229.5C 149.36,226.977 151.193,224.977 153.5,223.5 Z"/></g>
<g><path style="opacity:1" fill="#f5f5f5" d="M 204.5,223.5 C 213.037,223.201 216.871,227.201 216,235.5C 214.164,242.002 209.997,244.169 203.5,242C 199.079,238.975 197.579,234.808 199,229.5C 200.36,226.977 202.193,224.977 204.5,223.5 Z"/></g>
<g><path style="opacity:1" fill="#040404" d="M 329.5,230.5 C 336.943,229.436 343.609,231.103 349.5,235.5C 350.429,234.311 350.762,232.978 350.5,231.5C 354.167,231.5 357.833,231.5 361.5,231.5C 361.5,246.5 361.5,261.5 361.5,276.5C 358.15,276.665 354.817,276.498 351.5,276C 350.929,274.795 350.262,273.628 349.5,272.5C 337.89,280.212 327.39,278.879 318,268.5C 309.657,252.035 313.49,239.368 329.5,230.5 Z"/></g>
<g><path style="opacity:1" fill="#0a0a0a" d="M 423.5,230.5 C 432.749,229.292 439.749,232.626 444.5,240.5C 441.701,242.214 438.701,243.547 435.5,244.5C 432.807,241.524 429.64,240.857 426,242.5C 425.202,244.259 425.369,245.926 426.5,247.5C 431.139,249.062 435.805,250.562 440.5,252C 446.65,256.462 448.15,262.296 445,269.5C 436.117,278.672 426.283,279.838 415.5,273C 414.624,271.414 413.624,269.914 412.5,268.5C 414.794,266.347 417.46,264.68 420.5,263.5C 423.97,266.394 427.97,267.227 432.5,266C 435.326,263.478 434.993,261.478 431.5,260C 424.406,259.703 418.573,256.869 414,251.5C 411.171,241.822 414.338,234.822 423.5,230.5 Z"/></g>
<g><path style="opacity:1" fill="#0e0e0e" d="M 370.5,231.5 C 374.833,231.5 379.167,231.5 383.5,231.5C 383.5,246.5 383.5,261.5 383.5,276.5C 379.167,276.5 374.833,276.5 370.5,276.5C 370.5,261.5 370.5,246.5 370.5,231.5 Z"/></g>
<g><path style="opacity:1" fill="#585858" d="M 291.5,235.5 C 291.56,234.957 291.893,234.624 292.5,234.5C 293.499,248.484 293.833,262.484 293.5,276.5C 292.833,262.833 292.167,249.167 291.5,235.5 Z"/></g>
<g><path style="opacity:1" fill="#747474" d="M 252.5,236.5 C 251.833,249.833 251.167,263.167 250.5,276.5C 250.333,262.496 250.5,248.496 251,234.5C 251.717,235.044 252.217,235.711 252.5,236.5 Z"/></g>
<g><path style="opacity:1" fill="#3c9ef1" d="M 71.5,238.5 C 81.6554,237.83 85.4887,242.496 83,252.5C 79.7869,259.482 74.6203,261.315 67.5,258C 62.6653,250.164 63.9986,243.664 71.5,238.5 Z"/></g>
<g><path style="opacity:1" fill="#f7f7f7" d="M 333.5,241.5 C 346.973,241.085 351.806,247.419 348,260.5C 343.258,266.764 337.425,267.931 330.5,264C 323.226,255.416 324.226,247.916 333.5,241.5 Z"/></g>
<g><path style="opacity:1" fill="#121212" d="M 457.5,263.5 C 465.33,262.495 468.496,265.828 467,273.5C 462.246,278.951 457.913,278.617 454,272.5C 453.481,268.868 454.647,265.868 457.5,263.5 Z"/></g>
</svg>